<svg xmlns="http://www.w3.org/2000/svg" width="15" height="15" viewBox="0 0 15 15"><defs><style>.a{opacity:0.15;}</style></defs><path class="a" d="M15.756,13.663l-3.7-3.713A5.913,5.913,0,0,0,13.53,6.056,6.175,6.175,0,0,0,7.257,0,6.175,6.175,0,0,0,.984,6.056a6.175,6.175,0,0,0,6.273,6.056,6.36,6.36,0,0,0,3.594-1.1l3.726,3.741a.839.839,0,0,0,1.157.022A.772.772,0,0,0,15.756,13.663ZM7.257,1.58a4.564,4.564,0,0,1,4.637,4.476,4.564,4.564,0,0,1-4.637,4.476A4.564,4.564,0,0,1,2.62,6.056,4.564,4.564,0,0,1,7.257,1.58Z" transform="translate(-0.984)"/></svg>